<svg xmlns="http://www.w3.org/2000/svg" width="28" height="28" viewBox="0 0 28 28">
    <g fill="none" fill-rule="evenodd">
        <g fill="#002855" fill-rule="nonzero">
            <g>
                <g>
                    <path d="M14 2c6.627 0 12 5.373 12 12s-5.373 12-12 12S2 20.627 2 14 7.373 2 14 2zm0 .96C7.903 2.96 2.96 7.903 2.96 14c0 6.097 4.943 11.04 11.04 11.04 6.097 0 11.04-4.943 11.04-11.04 0-6.097-4.943-11.04-11.04-11.04zM14.694 9c.63 0 1.17.047 1.306.047v1.596h-.9c-.722 0-.857.329-.857.845v1.127h1.667l-.225 1.784h-1.487V19h-1.712v-4.554H11v-1.784h1.486v-1.315c0-1.502.901-2.347 2.208-2.347z" transform="translate(-704 -301) translate(637 301) translate(67)"/>
                </g>
            </g>
        </g>
    </g>
</svg>
