<?xml version="1.0" encoding="UTF-8"?>
<svg width="20px" height="20px" viewBox="0 0 20 20" version="1.1" xmlns="http://www.w3.org/2000/svg" xmlns:xlink="http://www.w3.org/1999/xlink">
    <title>Icons/24/Search</title>
    <g id="Library" stroke="none" stroke-width="1" fill="none" fill-rule="evenodd">
        <g id="Design-System---Part-1" transform="translate(-1417.000000, -1240.000000)" fill="#002855" fill-rule="nonzero">
            <g id="Combined-Shape" transform="translate(1415.000000, 1238.000000)">
                <path d="M9.69380907,2 C13.9429825,2 17.3876181,5.44144659 17.3876181,9.6866861 C17.3876181,11.7790691 16.5508189,13.6761881 15.1933296,15.0622267 L21.8326054,21.108828 C22.0419621,21.299482 22.0569804,21.6235976 21.8661498,21.8327604 C21.6965225,22.0186829 21.4213464,22.0511963 21.2152524,21.9222238 L21.1415465,21.8662737 L14.4243857,15.749154 C13.1194988,16.7669274 11.4775409,17.3733722 9.69380907,17.3733722 C5.44463565,17.3733722 2,13.9319256 2,9.6866861 C2,5.44144659 5.44463565,2 9.69380907,2 Z M9.69380907,3.02489148 C6.01119211,3.02489148 3.02584121,6.00747853 3.02584121,9.6866861 C3.02584121,13.3658937 6.01119211,16.3484807 9.69380907,16.3484807 C13.376426,16.3484807 16.3617769,13.3658937 16.3617769,9.6866861 C16.3617769,6.00747853 13.376426,3.02489148 9.69380907,3.02489148 Z"></path>
            </g>
        </g>
    </g>
</svg>