<svg xmlns="http://www.w3.org/2000/svg" width="28" height="28" viewBox="0 0 28 28">
    <g fill="none" fill-rule="evenodd">
        <g fill="#002855" fill-rule="nonzero">
            <g>
                <g>
                    <path d="M14 2c6.627 0 12 5.373 12 12s-5.373 12-12 12S2 20.627 2 14 7.373 2 14 2zm0 .96C7.903 2.96 2.96 7.903 2.96 14c0 6.097 4.943 11.04 11.04 11.04 6.097 0 11.04-4.943 11.04-11.04 0-6.097-4.943-11.04-11.04-11.04zM18.826 10c-.131.432-.436.822-.872 1.168-.044 0 0 .043 0 .043l1.002-.346c.044 0 .044.043.044.043-.13.39-.392.822-.872.995v.173c0 3.286-2.44 5.924-5.448 5.924-1.831 0-3.139-.346-3.662-.778-.044 0 0-.087.044-.087 1.438-.043 2.18-.432 2.746-.865-1.09 0-1.875-.302-2.267-1.384-.043-.043 0-.043.044-.043.523.303.959.216 1.7.216-.785-.216-1.787-.994-2.093-2.075-.043-.043 0-.043.044-.043.349.302.785.389 1.351.389-.784-.606-1.525-1.687-.872-2.984 1.134 1.168 2.136 1.73 4.229 2.076v-.26c0-1.167.915-2.162 2.092-2.162.436 0 1.133.346 1.308.476h.174c.349-.087.785-.303 1.264-.476z" transform="translate(-740 -301) translate(637 301) translate(103)"/>
                </g>
            </g>
        </g>
    </g>
</svg>
